<svg xmlns="http://www.w3.org/2000/svg" width="32" height="32" viewBox="0 0 32 32" shape-rendering="crispEdges">
  <title>Clock tile icon</title>
  <rect width="32" height="32" fill="white"/>
  <g fill="black">
  <rect x="12" y="2" width="1" height="1"/>
  <rect x="13" y="2" width="1" height="1"/>
  <rect x="14" y="2" width="1" height="1"/>
  <rect x="15" y="2" width="1" height="1"/>
  <rect x="16" y="2" width="1" height="1"/>
  <rect x="17" y="2" width="1" height="1"/>
  <rect x="18" y="2" width="1" height="1"/>
  <rect x="19" y="2" width="1" height="1"/>
  <rect x="9" y="3" width="1" height="1"/>
  <rect x="10" y="3" width="1" height="1"/>
  <rect x="11" y="3" width="1" height="1"/>
  <rect x="12" y="3" width="1" height="1"/>
  <rect x="19" y="3" width="1" height="1"/>
  <rect x="20" y="3" width="1" height="1"/>
  <rect x="21" y="3" width="1" height="1"/>
  <rect x="22" y="3" width="1" height="1"/>
  <rect x="7" y="4" width="1" height="1"/>
  <rect x="8" y="4" width="1" height="1"/>
  <rect x="9" y="4" width="1" height="1"/>
  <rect x="10" y="4" width="1" height="1"/>
  <rect x="11" y="4" width="1" height="1"/>
  <rect x="20" y="4" width="1" height="1"/>
  <rect x="21" y="4" width="1" height="1"/>
  <rect x="22" y="4" width="1" height="1"/>
  <rect x="23" y="4" width="1" height="1"/>
  <rect x="24" y="4" width="1" height="1"/>
  <rect x="6" y="5" width="1" height="1"/>
  <rect x="7" y="5" width="1" height="1"/>
  <rect x="8" y="5" width="1" height="1"/>
  <rect x="9" y="5" width="1" height="1"/>
  <rect x="14" y="5" width="1" height="1"/>
  <rect x="15" y="5" width="1" height="1"/>
  <rect x="16" y="5" width="1" height="1"/>
  <rect x="17" y="5" width="1" height="1"/>
  <rect x="22" y="5" width="1" height="1"/>
  <rect x="23" y="5" width="1" height="1"/>
  <rect x="24" y="5" width="1" height="1"/>
  <rect x="25" y="5" width="1" height="1"/>
  <rect x="5" y="6" width="1" height="1"/>
  <rect x="6" y="6" width="1" height="1"/>
  <rect x="7" y="6" width="1" height="1"/>
  <rect x="10" y="6" width="1" height="1"/>
  <rect x="15" y="6" width="1" height="1"/>
  <rect x="16" y="6" width="1" height="1"/>
  <rect x="17" y="6" width="1" height="1"/>
  <rect x="21" y="6" width="1" height="1"/>
  <rect x="24" y="6" width="1" height="1"/>
  <rect x="25" y="6" width="1" height="1"/>
  <rect x="26" y="6" width="1" height="1"/>
  <rect x="4" y="7" width="1" height="1"/>
  <rect x="5" y="7" width="1" height="1"/>
  <rect x="6" y="7" width="1" height="1"/>
  <rect x="10" y="7" width="1" height="1"/>
  <rect x="11" y="7" width="1" height="1"/>
  <rect x="15" y="7" width="1" height="1"/>
  <rect x="16" y="7" width="1" height="1"/>
  <rect x="17" y="7" width="1" height="1"/>
  <rect x="20" y="7" width="1" height="1"/>
  <rect x="21" y="7" width="1" height="1"/>
  <rect x="25" y="7" width="1" height="1"/>
  <rect x="26" y="7" width="1" height="1"/>
  <rect x="27" y="7" width="1" height="1"/>
  <rect x="4" y="8" width="1" height="1"/>
  <rect x="5" y="8" width="1" height="1"/>
  <rect x="26" y="8" width="1" height="1"/>
  <rect x="27" y="8" width="1" height="1"/>
  <rect x="3" y="9" width="1" height="1"/>
  <rect x="4" y="9" width="1" height="1"/>
  <rect x="22" y="9" width="1" height="1"/>
  <rect x="23" y="9" width="1" height="1"/>
  <rect x="27" y="9" width="1" height="1"/>
  <rect x="28" y="9" width="1" height="1"/>
  <rect x="3" y="10" width="1" height="1"/>
  <rect x="4" y="10" width="1" height="1"/>
  <rect x="6" y="10" width="1" height="1"/>
  <rect x="7" y="10" width="1" height="1"/>
  <rect x="21" y="10" width="1" height="1"/>
  <rect x="22" y="10" width="1" height="1"/>
  <rect x="24" y="10" width="1" height="1"/>
  <rect x="25" y="10" width="1" height="1"/>
  <rect x="27" y="10" width="1" height="1"/>
  <rect x="28" y="10" width="1" height="1"/>
  <rect x="3" y="11" width="1" height="1"/>
  <rect x="4" y="11" width="1" height="1"/>
  <rect x="9" y="11" width="1" height="1"/>
  <rect x="10" y="11" width="1" height="1"/>
  <rect x="19" y="11" width="1" height="1"/>
  <rect x="20" y="11" width="1" height="1"/>
  <rect x="21" y="11" width="1" height="1"/>
  <rect x="27" y="11" width="1" height="1"/>
  <rect x="28" y="11" width="1" height="1"/>
  <rect x="2" y="12" width="1" height="1"/>
  <rect x="3" y="12" width="1" height="1"/>
  <rect x="9" y="12" width="1" height="1"/>
  <rect x="10" y="12" width="1" height="1"/>
  <rect x="11" y="12" width="1" height="1"/>
  <rect x="12" y="12" width="1" height="1"/>
  <rect x="19" y="12" width="1" height="1"/>
  <rect x="20" y="12" width="1" height="1"/>
  <rect x="28" y="12" width="1" height="1"/>
  <rect x="29" y="12" width="1" height="1"/>
  <rect x="2" y="13" width="1" height="1"/>
  <rect x="11" y="13" width="1" height="1"/>
  <rect x="12" y="13" width="1" height="1"/>
  <rect x="13" y="13" width="1" height="1"/>
  <rect x="17" y="13" width="1" height="1"/>
  <rect x="18" y="13" width="1" height="1"/>
  <rect x="19" y="13" width="1" height="1"/>
  <rect x="29" y="13" width="1" height="1"/>
  <rect x="2" y="14" width="1" height="1"/>
  <rect x="5" y="14" width="1" height="1"/>
  <rect x="6" y="14" width="1" height="1"/>
  <rect x="12" y="14" width="1" height="1"/>
  <rect x="13" y="14" width="1" height="1"/>
  <rect x="14" y="14" width="1" height="1"/>
  <rect x="15" y="14" width="1" height="1"/>
  <rect x="16" y="14" width="1" height="1"/>
  <rect x="17" y="14" width="1" height="1"/>
  <rect x="18" y="14" width="1" height="1"/>
  <rect x="25" y="14" width="1" height="1"/>
  <rect x="26" y="14" width="1" height="1"/>
  <rect x="29" y="14" width="1" height="1"/>
  <rect x="2" y="15" width="1" height="1"/>
  <rect x="4" y="15" width="1" height="1"/>
  <rect x="5" y="15" width="1" height="1"/>
  <rect x="6" y="15" width="1" height="1"/>
  <rect x="13" y="15" width="1" height="1"/>
  <rect x="14" y="15" width="1" height="1"/>
  <rect x="15" y="15" width="1" height="1"/>
  <rect x="16" y="15" width="1" height="1"/>
  <rect x="17" y="15" width="1" height="1"/>
  <rect x="26" y="15" width="1" height="1"/>
  <rect x="29" y="15" width="1" height="1"/>
  <rect x="2" y="16" width="1" height="1"/>
  <rect x="3" y="16" width="1" height="1"/>
  <rect x="5" y="16" width="1" height="1"/>
  <rect x="6" y="16" width="1" height="1"/>
  <rect x="14" y="16" width="1" height="1"/>
  <rect x="15" y="16" width="1" height="1"/>
  <rect x="16" y="16" width="1" height="1"/>
  <rect x="17" y="16" width="1" height="1"/>
  <rect x="25" y="16" width="1" height="1"/>
  <rect x="26" y="16" width="1" height="1"/>
  <rect x="29" y="16" width="1" height="1"/>
  <rect x="2" y="17" width="1" height="1"/>
  <rect x="15" y="17" width="1" height="1"/>
  <rect x="16" y="17" width="1" height="1"/>
  <rect x="29" y="17" width="1" height="1"/>
  <rect x="2" y="18" width="1" height="1"/>
  <rect x="3" y="18" width="1" height="1"/>
  <rect x="28" y="18" width="1" height="1"/>
  <rect x="29" y="18" width="1" height="1"/>
  <rect x="3" y="19" width="1" height="1"/>
  <rect x="4" y="19" width="1" height="1"/>
  <rect x="27" y="19" width="1" height="1"/>
  <rect x="28" y="19" width="1" height="1"/>
  <rect x="3" y="20" width="1" height="1"/>
  <rect x="4" y="20" width="1" height="1"/>
  <rect x="6" y="20" width="1" height="1"/>
  <rect x="7" y="20" width="1" height="1"/>
  <rect x="24" y="20" width="1" height="1"/>
  <rect x="25" y="20" width="1" height="1"/>
  <rect x="27" y="20" width="1" height="1"/>
  <rect x="28" y="20" width="1" height="1"/>
  <rect x="3" y="21" width="1" height="1"/>
  <rect x="4" y="21" width="1" height="1"/>
  <rect x="27" y="21" width="1" height="1"/>
  <rect x="28" y="21" width="1" height="1"/>
  <rect x="4" y="22" width="1" height="1"/>
  <rect x="5" y="22" width="1" height="1"/>
  <rect x="26" y="22" width="1" height="1"/>
  <rect x="27" y="22" width="1" height="1"/>
  <rect x="5" y="23" width="1" height="1"/>
  <rect x="6" y="23" width="1" height="1"/>
  <rect x="10" y="23" width="1" height="1"/>
  <rect x="11" y="23" width="1" height="1"/>
  <rect x="20" y="23" width="1" height="1"/>
  <rect x="21" y="23" width="1" height="1"/>
  <rect x="25" y="23" width="1" height="1"/>
  <rect x="26" y="23" width="1" height="1"/>
  <rect x="27" y="23" width="1" height="1"/>
  <rect x="5" y="24" width="1" height="1"/>
  <rect x="6" y="24" width="1" height="1"/>
  <rect x="7" y="24" width="1" height="1"/>
  <rect x="10" y="24" width="1" height="1"/>
  <rect x="15" y="24" width="1" height="1"/>
  <rect x="16" y="24" width="1" height="1"/>
  <rect x="20" y="24" width="1" height="1"/>
  <rect x="21" y="24" width="1" height="1"/>
  <rect x="24" y="24" width="1" height="1"/>
  <rect x="25" y="24" width="1" height="1"/>
  <rect x="26" y="24" width="1" height="1"/>
  <rect x="6" y="25" width="1" height="1"/>
  <rect x="7" y="25" width="1" height="1"/>
  <rect x="8" y="25" width="1" height="1"/>
  <rect x="9" y="25" width="1" height="1"/>
  <rect x="15" y="25" width="1" height="1"/>
  <rect x="16" y="25" width="1" height="1"/>
  <rect x="22" y="25" width="1" height="1"/>
  <rect x="23" y="25" width="1" height="1"/>
  <rect x="24" y="25" width="1" height="1"/>
  <rect x="25" y="25" width="1" height="1"/>
  <rect x="7" y="26" width="1" height="1"/>
  <rect x="8" y="26" width="1" height="1"/>
  <rect x="9" y="26" width="1" height="1"/>
  <rect x="10" y="26" width="1" height="1"/>
  <rect x="11" y="26" width="1" height="1"/>
  <rect x="15" y="26" width="1" height="1"/>
  <rect x="16" y="26" width="1" height="1"/>
  <rect x="20" y="26" width="1" height="1"/>
  <rect x="21" y="26" width="1" height="1"/>
  <rect x="22" y="26" width="1" height="1"/>
  <rect x="23" y="26" width="1" height="1"/>
  <rect x="24" y="26" width="1" height="1"/>
  <rect x="9" y="27" width="1" height="1"/>
  <rect x="10" y="27" width="1" height="1"/>
  <rect x="11" y="27" width="1" height="1"/>
  <rect x="12" y="27" width="1" height="1"/>
  <rect x="19" y="27" width="1" height="1"/>
  <rect x="20" y="27" width="1" height="1"/>
  <rect x="21" y="27" width="1" height="1"/>
  <rect x="22" y="27" width="1" height="1"/>
  <rect x="12" y="28" width="1" height="1"/>
  <rect x="13" y="28" width="1" height="1"/>
  <rect x="14" y="28" width="1" height="1"/>
  <rect x="15" y="28" width="1" height="1"/>
  <rect x="16" y="28" width="1" height="1"/>
  <rect x="17" y="28" width="1" height="1"/>
  <rect x="18" y="28" width="1" height="1"/>
  <rect x="19" y="28" width="1" height="1"/>
  </g>
</svg>
