<svg xmlns="http://www.w3.org/2000/svg" width="32" height="32" viewBox="0 0 32 32" shape-rendering="crispEdges">
  <title>Weather tile icon</title>
  <rect width="32" height="32" fill="white"/>
  <g fill="black">
  <rect x="15" y="2" width="1" height="1"/>
  <rect x="15" y="3" width="1" height="1"/>
  <rect x="9" y="4" width="1" height="1"/>
  <rect x="10" y="4" width="1" height="1"/>
  <rect x="15" y="4" width="1" height="1"/>
  <rect x="20" y="4" width="1" height="1"/>
  <rect x="21" y="4" width="1" height="1"/>
  <rect x="9" y="5" width="1" height="1"/>
  <rect x="10" y="5" width="1" height="1"/>
  <rect x="11" y="5" width="1" height="1"/>
  <rect x="15" y="5" width="1" height="1"/>
  <rect x="20" y="5" width="1" height="1"/>
  <rect x="21" y="5" width="1" height="1"/>
  <rect x="10" y="6" width="1" height="1"/>
  <rect x="11" y="6" width="1" height="1"/>
  <rect x="15" y="6" width="1" height="1"/>
  <rect x="19" y="6" width="1" height="1"/>
  <rect x="20" y="6" width="1" height="1"/>
  <rect x="11" y="7" width="1" height="1"/>
  <rect x="19" y="7" width="1" height="1"/>
  <rect x="12" y="8" width="1" height="1"/>
  <rect x="13" y="8" width="1" height="1"/>
  <rect x="14" y="8" width="1" height="1"/>
  <rect x="15" y="8" width="1" height="1"/>
  <rect x="16" y="8" width="1" height="1"/>
  <rect x="17" y="8" width="1" height="1"/>
  <rect x="18" y="8" width="1" height="1"/>
  <rect x="4" y="9" width="1" height="1"/>
  <rect x="5" y="9" width="1" height="1"/>
  <rect x="10" y="9" width="1" height="1"/>
  <rect x="11" y="9" width="1" height="1"/>
  <rect x="12" y="9" width="1" height="1"/>
  <rect x="13" y="9" width="1" height="1"/>
  <rect x="18" y="9" width="1" height="1"/>
  <rect x="19" y="9" width="1" height="1"/>
  <rect x="25" y="9" width="1" height="1"/>
  <rect x="26" y="9" width="1" height="1"/>
  <rect x="5" y="10" width="1" height="1"/>
  <rect x="6" y="10" width="1" height="1"/>
  <rect x="7" y="10" width="1" height="1"/>
  <rect x="10" y="10" width="1" height="1"/>
  <rect x="11" y="10" width="1" height="1"/>
  <rect x="19" y="10" width="1" height="1"/>
  <rect x="20" y="10" width="1" height="1"/>
  <rect x="23" y="10" width="1" height="1"/>
  <rect x="24" y="10" width="1" height="1"/>
  <rect x="25" y="10" width="1" height="1"/>
  <rect x="6" y="11" width="1" height="1"/>
  <rect x="7" y="11" width="1" height="1"/>
  <rect x="9" y="11" width="1" height="1"/>
  <rect x="10" y="11" width="1" height="1"/>
  <rect x="20" y="11" width="1" height="1"/>
  <rect x="21" y="11" width="1" height="1"/>
  <rect x="23" y="11" width="1" height="1"/>
  <rect x="24" y="11" width="1" height="1"/>
  <rect x="8" y="12" width="1" height="1"/>
  <rect x="9" y="12" width="1" height="1"/>
  <rect x="21" y="12" width="1" height="1"/>
  <rect x="22" y="12" width="1" height="1"/>
  <rect x="8" y="13" width="1" height="1"/>
  <rect x="9" y="13" width="1" height="1"/>
  <rect x="21" y="13" width="1" height="1"/>
  <rect x="22" y="13" width="1" height="1"/>
  <rect x="23" y="13" width="1" height="1"/>
  <rect x="24" y="13" width="1" height="1"/>
  <rect x="8" y="14" width="1" height="1"/>
  <rect x="21" y="14" width="1" height="1"/>
  <rect x="22" y="14" width="1" height="1"/>
  <rect x="23" y="14" width="1" height="1"/>
  <rect x="24" y="14" width="1" height="1"/>
  <rect x="25" y="14" width="1" height="1"/>
  <rect x="2" y="15" width="1" height="1"/>
  <rect x="3" y="15" width="1" height="1"/>
  <rect x="4" y="15" width="1" height="1"/>
  <rect x="5" y="15" width="1" height="1"/>
  <rect x="6" y="15" width="1" height="1"/>
  <rect x="8" y="15" width="1" height="1"/>
  <rect x="20" y="15" width="1" height="1"/>
  <rect x="21" y="15" width="1" height="1"/>
  <rect x="25" y="15" width="1" height="1"/>
  <rect x="26" y="15" width="1" height="1"/>
  <rect x="8" y="16" width="1" height="1"/>
  <rect x="19" y="16" width="1" height="1"/>
  <rect x="20" y="16" width="1" height="1"/>
  <rect x="26" y="16" width="1" height="1"/>
  <rect x="27" y="16" width="1" height="1"/>
  <rect x="8" y="17" width="1" height="1"/>
  <rect x="9" y="17" width="1" height="1"/>
  <rect x="17" y="17" width="1" height="1"/>
  <rect x="18" y="17" width="1" height="1"/>
  <rect x="19" y="17" width="1" height="1"/>
  <rect x="20" y="17" width="1" height="1"/>
  <rect x="26" y="17" width="1" height="1"/>
  <rect x="27" y="17" width="1" height="1"/>
  <rect x="8" y="18" width="1" height="1"/>
  <rect x="9" y="18" width="1" height="1"/>
  <rect x="16" y="18" width="1" height="1"/>
  <rect x="17" y="18" width="1" height="1"/>
  <rect x="18" y="18" width="1" height="1"/>
  <rect x="19" y="18" width="1" height="1"/>
  <rect x="26" y="18" width="1" height="1"/>
  <rect x="27" y="18" width="1" height="1"/>
  <rect x="28" y="18" width="1" height="1"/>
  <rect x="6" y="19" width="1" height="1"/>
  <rect x="7" y="19" width="1" height="1"/>
  <rect x="9" y="19" width="1" height="1"/>
  <rect x="10" y="19" width="1" height="1"/>
  <rect x="15" y="19" width="1" height="1"/>
  <rect x="16" y="19" width="1" height="1"/>
  <rect x="27" y="19" width="1" height="1"/>
  <rect x="28" y="19" width="1" height="1"/>
  <rect x="29" y="19" width="1" height="1"/>
  <rect x="5" y="20" width="1" height="1"/>
  <rect x="6" y="20" width="1" height="1"/>
  <rect x="10" y="20" width="1" height="1"/>
  <rect x="11" y="20" width="1" height="1"/>
  <rect x="15" y="20" width="1" height="1"/>
  <rect x="28" y="20" width="1" height="1"/>
  <rect x="29" y="20" width="1" height="1"/>
  <rect x="4" y="21" width="1" height="1"/>
  <rect x="5" y="21" width="1" height="1"/>
  <rect x="11" y="21" width="1" height="1"/>
  <rect x="12" y="21" width="1" height="1"/>
  <rect x="13" y="21" width="1" height="1"/>
  <rect x="14" y="21" width="1" height="1"/>
  <rect x="15" y="21" width="1" height="1"/>
  <rect x="28" y="21" width="1" height="1"/>
  <rect x="29" y="21" width="1" height="1"/>
  <rect x="13" y="22" width="1" height="1"/>
  <rect x="14" y="22" width="1" height="1"/>
  <rect x="15" y="22" width="1" height="1"/>
  <rect x="16" y="22" width="1" height="1"/>
  <rect x="27" y="22" width="1" height="1"/>
  <rect x="28" y="22" width="1" height="1"/>
  <rect x="29" y="22" width="1" height="1"/>
  <rect x="11" y="23" width="1" height="1"/>
  <rect x="17" y="23" width="1" height="1"/>
  <rect x="18" y="23" width="1" height="1"/>
  <rect x="19" y="23" width="1" height="1"/>
  <rect x="20" y="23" width="1" height="1"/>
  <rect x="21" y="23" width="1" height="1"/>
  <rect x="22" y="23" width="1" height="1"/>
  <rect x="23" y="23" width="1" height="1"/>
  <rect x="24" y="23" width="1" height="1"/>
  <rect x="25" y="23" width="1" height="1"/>
  <rect x="26" y="23" width="1" height="1"/>
  <rect x="27" y="23" width="1" height="1"/>
  <rect x="10" y="24" width="1" height="1"/>
  <rect x="11" y="24" width="1" height="1"/>
  <rect x="15" y="24" width="1" height="1"/>
  <rect x="17" y="24" width="1" height="1"/>
  <rect x="18" y="24" width="1" height="1"/>
  <rect x="19" y="24" width="1" height="1"/>
  <rect x="20" y="24" width="1" height="1"/>
  <rect x="21" y="24" width="1" height="1"/>
  <rect x="22" y="24" width="1" height="1"/>
  <rect x="23" y="24" width="1" height="1"/>
  <rect x="24" y="24" width="1" height="1"/>
  <rect x="25" y="24" width="1" height="1"/>
  <rect x="26" y="24" width="1" height="1"/>
  <rect x="9" y="25" width="1" height="1"/>
  <rect x="10" y="25" width="1" height="1"/>
  <rect x="11" y="25" width="1" height="1"/>
  <rect x="15" y="25" width="1" height="1"/>
  <rect x="9" y="26" width="1" height="1"/>
  <rect x="10" y="26" width="1" height="1"/>
  <rect x="15" y="26" width="1" height="1"/>
  <rect x="15" y="27" width="1" height="1"/>
  <rect x="15" y="28" width="1" height="1"/>
  </g>
</svg>
