<svg xmlns="http://www.w3.org/2000/svg" width="32" height="32" viewBox="0 0 32 32" shape-rendering="crispEdges">
  <title>Settings tile icon</title>
  <rect width="32" height="32" fill="white"/>
  <g fill="black">
  <rect x="12" y="2" width="1" height="1"/>
  <rect x="13" y="2" width="1" height="1"/>
  <rect x="14" y="2" width="1" height="1"/>
  <rect x="15" y="2" width="1" height="1"/>
  <rect x="16" y="2" width="1" height="1"/>
  <rect x="17" y="2" width="1" height="1"/>
  <rect x="12" y="3" width="1" height="1"/>
  <rect x="13" y="3" width="1" height="1"/>
  <rect x="14" y="3" width="1" height="1"/>
  <rect x="15" y="3" width="1" height="1"/>
  <rect x="16" y="3" width="1" height="1"/>
  <rect x="17" y="3" width="1" height="1"/>
  <rect x="18" y="3" width="1" height="1"/>
  <rect x="12" y="4" width="1" height="1"/>
  <rect x="13" y="4" width="1" height="1"/>
  <rect x="17" y="4" width="1" height="1"/>
  <rect x="18" y="4" width="1" height="1"/>
  <rect x="7" y="5" width="1" height="1"/>
  <rect x="8" y="5" width="1" height="1"/>
  <rect x="9" y="5" width="1" height="1"/>
  <rect x="11" y="5" width="1" height="1"/>
  <rect x="12" y="5" width="1" height="1"/>
  <rect x="13" y="5" width="1" height="1"/>
  <rect x="17" y="5" width="1" height="1"/>
  <rect x="18" y="5" width="1" height="1"/>
  <rect x="19" y="5" width="1" height="1"/>
  <rect x="21" y="5" width="1" height="1"/>
  <rect x="22" y="5" width="1" height="1"/>
  <rect x="23" y="5" width="1" height="1"/>
  <rect x="6" y="6" width="1" height="1"/>
  <rect x="7" y="6" width="1" height="1"/>
  <rect x="8" y="6" width="1" height="1"/>
  <rect x="9" y="6" width="1" height="1"/>
  <rect x="10" y="6" width="1" height="1"/>
  <rect x="11" y="6" width="1" height="1"/>
  <rect x="12" y="6" width="1" height="1"/>
  <rect x="18" y="6" width="1" height="1"/>
  <rect x="19" y="6" width="1" height="1"/>
  <rect x="20" y="6" width="1" height="1"/>
  <rect x="21" y="6" width="1" height="1"/>
  <rect x="22" y="6" width="1" height="1"/>
  <rect x="23" y="6" width="1" height="1"/>
  <rect x="24" y="6" width="1" height="1"/>
  <rect x="5" y="7" width="1" height="1"/>
  <rect x="6" y="7" width="1" height="1"/>
  <rect x="9" y="7" width="1" height="1"/>
  <rect x="10" y="7" width="1" height="1"/>
  <rect x="11" y="7" width="1" height="1"/>
  <rect x="19" y="7" width="1" height="1"/>
  <rect x="20" y="7" width="1" height="1"/>
  <rect x="21" y="7" width="1" height="1"/>
  <rect x="24" y="7" width="1" height="1"/>
  <rect x="25" y="7" width="1" height="1"/>
  <rect x="4" y="8" width="1" height="1"/>
  <rect x="5" y="8" width="1" height="1"/>
  <rect x="25" y="8" width="1" height="1"/>
  <rect x="26" y="8" width="1" height="1"/>
  <rect x="4" y="9" width="1" height="1"/>
  <rect x="5" y="9" width="1" height="1"/>
  <rect x="6" y="9" width="1" height="1"/>
  <rect x="11" y="9" width="1" height="1"/>
  <rect x="12" y="9" width="1" height="1"/>
  <rect x="13" y="9" width="1" height="1"/>
  <rect x="14" y="9" width="1" height="1"/>
  <rect x="15" y="9" width="1" height="1"/>
  <rect x="16" y="9" width="1" height="1"/>
  <rect x="17" y="9" width="1" height="1"/>
  <rect x="18" y="9" width="1" height="1"/>
  <rect x="19" y="9" width="1" height="1"/>
  <rect x="24" y="9" width="1" height="1"/>
  <rect x="25" y="9" width="1" height="1"/>
  <rect x="26" y="9" width="1" height="1"/>
  <rect x="5" y="10" width="1" height="1"/>
  <rect x="6" y="10" width="1" height="1"/>
  <rect x="7" y="10" width="1" height="1"/>
  <rect x="11" y="10" width="1" height="1"/>
  <rect x="12" y="10" width="1" height="1"/>
  <rect x="13" y="10" width="1" height="1"/>
  <rect x="17" y="10" width="1" height="1"/>
  <rect x="18" y="10" width="1" height="1"/>
  <rect x="19" y="10" width="1" height="1"/>
  <rect x="20" y="10" width="1" height="1"/>
  <rect x="23" y="10" width="1" height="1"/>
  <rect x="24" y="10" width="1" height="1"/>
  <rect x="25" y="10" width="1" height="1"/>
  <rect x="5" y="11" width="1" height="1"/>
  <rect x="6" y="11" width="1" height="1"/>
  <rect x="7" y="11" width="1" height="1"/>
  <rect x="9" y="11" width="1" height="1"/>
  <rect x="10" y="11" width="1" height="1"/>
  <rect x="11" y="11" width="1" height="1"/>
  <rect x="19" y="11" width="1" height="1"/>
  <rect x="20" y="11" width="1" height="1"/>
  <rect x="21" y="11" width="1" height="1"/>
  <rect x="23" y="11" width="1" height="1"/>
  <rect x="24" y="11" width="1" height="1"/>
  <rect x="25" y="11" width="1" height="1"/>
  <rect x="5" y="12" width="1" height="1"/>
  <rect x="6" y="12" width="1" height="1"/>
  <rect x="9" y="12" width="1" height="1"/>
  <rect x="10" y="12" width="1" height="1"/>
  <rect x="13" y="12" width="1" height="1"/>
  <rect x="14" y="12" width="1" height="1"/>
  <rect x="15" y="12" width="1" height="1"/>
  <rect x="16" y="12" width="1" height="1"/>
  <rect x="20" y="12" width="1" height="1"/>
  <rect x="21" y="12" width="1" height="1"/>
  <rect x="24" y="12" width="1" height="1"/>
  <rect x="25" y="12" width="1" height="1"/>
  <rect x="2" y="13" width="1" height="1"/>
  <rect x="3" y="13" width="1" height="1"/>
  <rect x="4" y="13" width="1" height="1"/>
  <rect x="5" y="13" width="1" height="1"/>
  <rect x="6" y="13" width="1" height="1"/>
  <rect x="8" y="13" width="1" height="1"/>
  <rect x="9" y="13" width="1" height="1"/>
  <rect x="10" y="13" width="1" height="1"/>
  <rect x="12" y="13" width="1" height="1"/>
  <rect x="13" y="13" width="1" height="1"/>
  <rect x="14" y="13" width="1" height="1"/>
  <rect x="15" y="13" width="1" height="1"/>
  <rect x="16" y="13" width="1" height="1"/>
  <rect x="17" y="13" width="1" height="1"/>
  <rect x="18" y="13" width="1" height="1"/>
  <rect x="21" y="13" width="1" height="1"/>
  <rect x="22" y="13" width="1" height="1"/>
  <rect x="24" y="13" width="1" height="1"/>
  <rect x="25" y="13" width="1" height="1"/>
  <rect x="26" y="13" width="1" height="1"/>
  <rect x="27" y="13" width="1" height="1"/>
  <rect x="28" y="13" width="1" height="1"/>
  <rect x="2" y="14" width="1" height="1"/>
  <rect x="3" y="14" width="1" height="1"/>
  <rect x="4" y="14" width="1" height="1"/>
  <rect x="5" y="14" width="1" height="1"/>
  <rect x="8" y="14" width="1" height="1"/>
  <rect x="9" y="14" width="1" height="1"/>
  <rect x="12" y="14" width="1" height="1"/>
  <rect x="13" y="14" width="1" height="1"/>
  <rect x="17" y="14" width="1" height="1"/>
  <rect x="18" y="14" width="1" height="1"/>
  <rect x="21" y="14" width="1" height="1"/>
  <rect x="22" y="14" width="1" height="1"/>
  <rect x="25" y="14" width="1" height="1"/>
  <rect x="26" y="14" width="1" height="1"/>
  <rect x="27" y="14" width="1" height="1"/>
  <rect x="28" y="14" width="1" height="1"/>
  <rect x="2" y="15" width="1" height="1"/>
  <rect x="8" y="15" width="1" height="1"/>
  <rect x="9" y="15" width="1" height="1"/>
  <rect x="11" y="15" width="1" height="1"/>
  <rect x="12" y="15" width="1" height="1"/>
  <rect x="18" y="15" width="1" height="1"/>
  <rect x="19" y="15" width="1" height="1"/>
  <rect x="21" y="15" width="1" height="1"/>
  <rect x="22" y="15" width="1" height="1"/>
  <rect x="28" y="15" width="1" height="1"/>
  <rect x="2" y="16" width="1" height="1"/>
  <rect x="3" y="16" width="1" height="1"/>
  <rect x="8" y="16" width="1" height="1"/>
  <rect x="9" y="16" width="1" height="1"/>
  <rect x="11" y="16" width="1" height="1"/>
  <rect x="12" y="16" width="1" height="1"/>
  <rect x="18" y="16" width="1" height="1"/>
  <rect x="19" y="16" width="1" height="1"/>
  <rect x="21" y="16" width="1" height="1"/>
  <rect x="22" y="16" width="1" height="1"/>
  <rect x="27" y="16" width="1" height="1"/>
  <rect x="28" y="16" width="1" height="1"/>
  <rect x="2" y="17" width="1" height="1"/>
  <rect x="3" y="17" width="1" height="1"/>
  <rect x="8" y="17" width="1" height="1"/>
  <rect x="9" y="17" width="1" height="1"/>
  <rect x="11" y="17" width="1" height="1"/>
  <rect x="12" y="17" width="1" height="1"/>
  <rect x="13" y="17" width="1" height="1"/>
  <rect x="17" y="17" width="1" height="1"/>
  <rect x="18" y="17" width="1" height="1"/>
  <rect x="19" y="17" width="1" height="1"/>
  <rect x="21" y="17" width="1" height="1"/>
  <rect x="22" y="17" width="1" height="1"/>
  <rect x="27" y="17" width="1" height="1"/>
  <rect x="28" y="17" width="1" height="1"/>
  <rect x="2" y="18" width="1" height="1"/>
  <rect x="3" y="18" width="1" height="1"/>
  <rect x="4" y="18" width="1" height="1"/>
  <rect x="5" y="18" width="1" height="1"/>
  <rect x="8" y="18" width="1" height="1"/>
  <rect x="9" y="18" width="1" height="1"/>
  <rect x="12" y="18" width="1" height="1"/>
  <rect x="13" y="18" width="1" height="1"/>
  <rect x="14" y="18" width="1" height="1"/>
  <rect x="15" y="18" width="1" height="1"/>
  <rect x="16" y="18" width="1" height="1"/>
  <rect x="17" y="18" width="1" height="1"/>
  <rect x="18" y="18" width="1" height="1"/>
  <rect x="21" y="18" width="1" height="1"/>
  <rect x="22" y="18" width="1" height="1"/>
  <rect x="24" y="18" width="1" height="1"/>
  <rect x="25" y="18" width="1" height="1"/>
  <rect x="26" y="18" width="1" height="1"/>
  <rect x="27" y="18" width="1" height="1"/>
  <rect x="28" y="18" width="1" height="1"/>
  <rect x="3" y="19" width="1" height="1"/>
  <rect x="4" y="19" width="1" height="1"/>
  <rect x="5" y="19" width="1" height="1"/>
  <rect x="6" y="19" width="1" height="1"/>
  <rect x="9" y="19" width="1" height="1"/>
  <rect x="10" y="19" width="1" height="1"/>
  <rect x="13" y="19" width="1" height="1"/>
  <rect x="14" y="19" width="1" height="1"/>
  <rect x="15" y="19" width="1" height="1"/>
  <rect x="16" y="19" width="1" height="1"/>
  <rect x="17" y="19" width="1" height="1"/>
  <rect x="20" y="19" width="1" height="1"/>
  <rect x="21" y="19" width="1" height="1"/>
  <rect x="24" y="19" width="1" height="1"/>
  <rect x="25" y="19" width="1" height="1"/>
  <rect x="26" y="19" width="1" height="1"/>
  <rect x="27" y="19" width="1" height="1"/>
  <rect x="5" y="20" width="1" height="1"/>
  <rect x="6" y="20" width="1" height="1"/>
  <rect x="9" y="20" width="1" height="1"/>
  <rect x="10" y="20" width="1" height="1"/>
  <rect x="11" y="20" width="1" height="1"/>
  <rect x="19" y="20" width="1" height="1"/>
  <rect x="20" y="20" width="1" height="1"/>
  <rect x="21" y="20" width="1" height="1"/>
  <rect x="24" y="20" width="1" height="1"/>
  <rect x="25" y="20" width="1" height="1"/>
  <rect x="6" y="21" width="1" height="1"/>
  <rect x="7" y="21" width="1" height="1"/>
  <rect x="10" y="21" width="1" height="1"/>
  <rect x="11" y="21" width="1" height="1"/>
  <rect x="12" y="21" width="1" height="1"/>
  <rect x="18" y="21" width="1" height="1"/>
  <rect x="19" y="21" width="1" height="1"/>
  <rect x="20" y="21" width="1" height="1"/>
  <rect x="23" y="21" width="1" height="1"/>
  <rect x="24" y="21" width="1" height="1"/>
  <rect x="5" y="22" width="1" height="1"/>
  <rect x="6" y="22" width="1" height="1"/>
  <rect x="11" y="22" width="1" height="1"/>
  <rect x="12" y="22" width="1" height="1"/>
  <rect x="13" y="22" width="1" height="1"/>
  <rect x="14" y="22" width="1" height="1"/>
  <rect x="15" y="22" width="1" height="1"/>
  <rect x="16" y="22" width="1" height="1"/>
  <rect x="17" y="22" width="1" height="1"/>
  <rect x="18" y="22" width="1" height="1"/>
  <rect x="19" y="22" width="1" height="1"/>
  <rect x="24" y="22" width="1" height="1"/>
  <rect x="25" y="22" width="1" height="1"/>
  <rect x="4" y="23" width="1" height="1"/>
  <rect x="5" y="23" width="1" height="1"/>
  <rect x="13" y="23" width="1" height="1"/>
  <rect x="14" y="23" width="1" height="1"/>
  <rect x="15" y="23" width="1" height="1"/>
  <rect x="16" y="23" width="1" height="1"/>
  <rect x="17" y="23" width="1" height="1"/>
  <rect x="25" y="23" width="1" height="1"/>
  <rect x="26" y="23" width="1" height="1"/>
  <rect x="4" y="24" width="1" height="1"/>
  <rect x="5" y="24" width="1" height="1"/>
  <rect x="6" y="24" width="1" height="1"/>
  <rect x="9" y="24" width="1" height="1"/>
  <rect x="10" y="24" width="1" height="1"/>
  <rect x="20" y="24" width="1" height="1"/>
  <rect x="21" y="24" width="1" height="1"/>
  <rect x="24" y="24" width="1" height="1"/>
  <rect x="25" y="24" width="1" height="1"/>
  <rect x="26" y="24" width="1" height="1"/>
  <rect x="5" y="25" width="1" height="1"/>
  <rect x="6" y="25" width="1" height="1"/>
  <rect x="7" y="25" width="1" height="1"/>
  <rect x="8" y="25" width="1" height="1"/>
  <rect x="9" y="25" width="1" height="1"/>
  <rect x="10" y="25" width="1" height="1"/>
  <rect x="11" y="25" width="1" height="1"/>
  <rect x="12" y="25" width="1" height="1"/>
  <rect x="18" y="25" width="1" height="1"/>
  <rect x="19" y="25" width="1" height="1"/>
  <rect x="20" y="25" width="1" height="1"/>
  <rect x="21" y="25" width="1" height="1"/>
  <rect x="22" y="25" width="1" height="1"/>
  <rect x="23" y="25" width="1" height="1"/>
  <rect x="24" y="25" width="1" height="1"/>
  <rect x="25" y="25" width="1" height="1"/>
  <rect x="6" y="26" width="1" height="1"/>
  <rect x="7" y="26" width="1" height="1"/>
  <rect x="8" y="26" width="1" height="1"/>
  <rect x="9" y="26" width="1" height="1"/>
  <rect x="11" y="26" width="1" height="1"/>
  <rect x="12" y="26" width="1" height="1"/>
  <rect x="13" y="26" width="1" height="1"/>
  <rect x="17" y="26" width="1" height="1"/>
  <rect x="18" y="26" width="1" height="1"/>
  <rect x="19" y="26" width="1" height="1"/>
  <rect x="21" y="26" width="1" height="1"/>
  <rect x="22" y="26" width="1" height="1"/>
  <rect x="23" y="26" width="1" height="1"/>
  <rect x="24" y="26" width="1" height="1"/>
  <rect x="7" y="27" width="1" height="1"/>
  <rect x="8" y="27" width="1" height="1"/>
  <rect x="12" y="27" width="1" height="1"/>
  <rect x="13" y="27" width="1" height="1"/>
  <rect x="17" y="27" width="1" height="1"/>
  <rect x="18" y="27" width="1" height="1"/>
  <rect x="22" y="27" width="1" height="1"/>
  <rect x="23" y="27" width="1" height="1"/>
  <rect x="12" y="28" width="1" height="1"/>
  <rect x="13" y="28" width="1" height="1"/>
  <rect x="14" y="28" width="1" height="1"/>
  <rect x="15" y="28" width="1" height="1"/>
  <rect x="16" y="28" width="1" height="1"/>
  <rect x="17" y="28" width="1" height="1"/>
  <rect x="18" y="28" width="1" height="1"/>
  <rect x="13" y="29" width="1" height="1"/>
  <rect x="14" y="29" width="1" height="1"/>
  <rect x="15" y="29" width="1" height="1"/>
  <rect x="16" y="29" width="1" height="1"/>
  <rect x="17" y="29" width="1" height="1"/>
  </g>
</svg>
